# xmcd CD database file
#
# Track frame offsets:
#	150
#	19650
#	34824
#	50677
#	63869
#	78039
#	98815
#	116251
#	130351
#	148928
#	161415
#	187671
#	208906
#	218445
#	241185
#	258364
#	271274
#	289227
#
# Disc length: 4216 seconds
#
# Revision: 0
# Processed by: cddbd v1.5.1PL0 Copyright (c) Steve Scherf et al.
# Submitted via: Feurio! 1.66 - http://www.feurio.com
#
DISCID=f7107612
DTITLE=Various Artist - I Am A Cold Rock I Am Dull Grass (promo)
DYEAR=2004
DGENRE=country
TTITLE0=Moyra Mc Bride and Maxon Blewitt - Disorder
TTITLE1=Strugglers - Riding
TTITLE2=Calexico - Send Your Love to Me
TTITLE3=Sodastream - Southside of the World
TTITLE4=Iron and Wine - We All, Us Three, Will Ride
TTITLE5=Saint Aldrijn - Werner's Last Blues to Blokbuster
TTITLE6=Scout Niblett - Trudy Dies
TTITLE7=Boy Omega - A Sucker's Evening
TTITLE8=Pinetop Seven - A Minor Place
TTITLE9=Pale Horse and Rider - Work Hard Play Hard
TTITLE10=Jeffrey Luck Lucas - Agnes, Queen of Sorrow
TTITLE11=Christian Kiefer - Viva Ultra
TTITLE12=Racingpaperplanes - Careless Love
TTITLE13=Rivulets - Will You Miss Me When I Burn
TTITLE14=Sorry About Dresden - All Gone, All Gone
TTITLE15=Pink Nasty - May It Always Be
TTITLE16=The Channel - Black
TTITLE17=Hudson Bell - Kid of Harith
EXTD=
EXTT0=
EXTT1=
EXTT2=
EXTT3=
EXTT4=
EXTT5=
EXTT6=
EXTT7=
EXTT8=
EXTT9=
EXTT10=
EXTT11=
EXTT12=
EXTT13=
EXTT14=
EXTT15=
EXTT16=
EXTT17=
PLAYORDER=
